# xmcd
#
# Track frame offsets: 
#        150
#        20272
#        39460
#        61232
#        80480
#        102000
#        122982
#        143825
#        162190
#        180830
#
# Disc length: 2668 seconds
#
# Revision: 0
# Processed by: cddbd v1.5.2PL0 Copyright (c) Steve Scherf et al.
# Submitted via: ExactAudioCopyFreeDBPlugin 1.0
#
DISCID=740a6a0a
DTITLE=Luu Bich - Tinh Xa
DYEAR=1900
DGENRE=
TTITLE0=Hat cho nguoi xa nha
TTITLE1=Tron doi van nho
TTITLE2=Nhu con mua di mai
TTITLE3=Em van cho anh
TTITLE4=Tim lanh
TTITLE5=Tra no tinh xa
TTITLE6=Mua xa
TTITLE7=Con mai yeu thuong
TTITLE8=Yeu anh diu dang
TTITLE9=Dieu ay da den
EXTD=
EXTT0=
EXTT1=
EXTT2=
EXTT3=
EXTT4=
EXTT5=
EXTT6=
EXTT7=
EXTT8=
EXTT9=
PLAYORDER=
